<?xml version="1.0" standalone="no"?>
<!DOCTYPE svg PUBLIC "-//W3C//DTD SVG 20010904//EN"
 "http://www.w3.org/TR/2001/REC-SVG-20010904/DTD/svg10.dtd">
<svg version="1.0" xmlns="http://www.w3.org/2000/svg"
 width="103.000000pt" height="104.000000pt" viewBox="0 0 103.000000 104.000000"
 preserveAspectRatio="xMidYMid meet">
<metadata>
Created by potrace 1.11, written by Peter Selinger 2001-2013
</metadata>
<g transform="translate(0.000000,104.000000) scale(0.100000,-0.100000)"
fill="#000000" stroke="none">
<path d="M0 520 l0 -510 510 0 510 0 0 510 0 510 -510 0 -510 0 0 -510z m986
428 c-5 -33 -16 -62 -30 -78 -95 -106 -519 -550 -525 -550 -4 0 -18 11 -31 25
l-24 26 255 257 c140 141 264 268 274 282 l20 25 -25 -20 c-14 -10 -141 -134
-282 -274 l-257 -255 -26 24 c-14 13 -25 27 -25 31 0 5 129 130 286 278 286
270 293 276 368 280 l29 1 -7 -52z m-840 -872 c-17 -27 -77 -34 -96 -11 -20
24 -15 67 10 87 23 19 24 19 62 -19 34 -33 37 -39 24 -57z"/>
<path d="M72 119 c-11 -18 -11 -23 5 -35 24 -18 26 -17 41 7 11 18 11 23 -5
35 -24 18 -26 17 -41 -7z"/>
</g>
</svg>
